<?xml version="1.0" encoding="UTF-8"?>
<svg id="Layer_2" data-name="Layer 2" xmlns="http://www.w3.org/2000/svg" viewBox="0 0 27.39 75.85">
  <defs>
    <style>
      .cls-1 {
        fill: #f31673;
      }
    </style>
  </defs>
  <g id="Layer_1-2" data-name="Layer 1">
    <path class="cls-1" d="M5.84,23.28h11.69s4.88.44,4.88.27-.38-2.8-.38-3.24.82-1.92.38-2.85c-.44-.93-1.26-4.28-1.26-4.66s.27-.82-.11-3.46c-.38-2.63-1.21-4.01-1.7-4.61-.49-.6-1.37-1.81-2.14-2.69-.77-.88-1.96-2.36-3.01-1.98-1.05.38-.94-.49-2.31,1.59-1.37,2.09-2.63,3.07-2.85,4.45-.22,1.37-.11,2.36-.82,3.35-.71.99-.55,5.32-.88,6.09-.33.77-1.7,2.85-1.48,3.57.22.71,0,4.17,0,4.17ZM10.71,12.65c.27-2.26.83-4.48,1.83-6.52.18-.39.79-.11.62.28-1.48,3.97-1.64,8.61-.37,12.61.16.48-.1.99-.57,1.16-.5.17-1.06-.13-1.18-.65-.55-2.29-.59-4.62-.34-6.88ZM.3,64.65c.77.55,5.32-.22,7.35,0,2.03.22,3.08.05,3.87-.33.79-.38.74-2.03,2.27-2.14,1.54-.11,2.2,1.32,4.06,1.87s8.67.38,8.67.38c0,0,.6-3.07.27-5.6-.33-2.52-.93-5.6-1.54-7.19-.6-1.59,1.29-4.01,1.63-6.26s.92-11.25,0-12.13-2.62-4.77-4.54-4.77-10.16-.35-11.25-.38c-2.47-.08-6.66-.77-7.85.22-.99.82-1.21,2.14-1.59,3.13-.38.99-.99,2.2,0,3.24.99,1.04,1.81,2.91,1.32,3.4s-2.3,2.74-2.41,4.06c-.11,1.32-.49,6.31,0,7.85.49,1.54-.44,1.1-.25,5.38.19,4.28-.79,8.73-.03,9.27ZM7.24,55.05c.22-1.04,0-2.47.27-4.06.27-1.59.82-1.59.82-2.85s.11-2.52-.93-4.34.27-1.26.38-2.47c.11-1.21.83-1.65.94-2.25.11-.6.93-1.7,1.33-2.69.4-.99.1-1.1-1-1.92-1.1-.82-1.48-1.1-1.15-2.09.33-.99,2.4-.29,4.42-.27,1.61.01,1.23,1.26.79,2.69s1.1,1.48.99,2.38-.93,1.57-1.78,2.73c-.85,1.15-.63,2.47-.79,3.84-.16,1.37.65,1.43,1.2,2.58.55,1.15-.49,1.7-1.2,2.47-.71.77-1.16,2.09-1.82,3.95-.66,1.87.05,1.98.71,3.02.66,1.04.71,2.2.16,3.24s-1.98.88-3.29.77c-1.32-.11-1.48-.16-1.48-3.02s1.21-.66,1.43-1.7ZM21.2,69.37c-2.47-.16-11.09-.22-11.09-.22-2.58.05-6.8-.55-7.85,0-1.04.55-2.41,2.36-2.25,3.68.16,1.32,1.48,3.02,3.73,3.02s8.51-.33,9.93-.27,7.24-.05,9.22-.05,4.66,0,4.06-3.46c-.6-3.46-3.29-2.52-5.76-2.69Z"/>
  </g>
</svg>