<?xml version="1.0" encoding="UTF-8"?>
<svg id="Layer_2" data-name="Layer 2" xmlns="http://www.w3.org/2000/svg" viewBox="0 0 315.59 76.74">
  <defs>
    <style>
      .cls-1 {
        fill: #f11672;
      }

      .cls-2 {
        fill: #2f0111;
      }

      .cls-3 {
        opacity: .5;
      }
    </style>
  </defs>
  <g id="Layer_1-2" data-name="Layer 1">
    <g>
      <g>
        <polygon class="cls-1" points="112.87 12.77 116.82 66 136.46 65.68 135.7 53.6 139.21 49.76 150.95 65.89 170.16 61.07 151.61 34.07 170.05 11.78 149.3 11.89 133.06 30.99 131.52 11.35 112.87 12.77"/>
        <polygon class="cls-1" points="258.29 12.77 262.24 66 281.89 65.68 281.12 53.6 284.63 49.76 296.38 65.89 315.59 61.07 297.04 34.07 315.48 11.78 294.73 11.89 278.49 30.99 276.95 11.35 258.29 12.77"/>
        <path class="cls-1" d="M193.21,10.69l-18,2.2s0,42.37,1.76,52.57l20.41.44s-1.54-35.67-4.17-55.21Z"/>
        <path class="cls-1" d="M251.05,16.72l-1.65,16.79s-16.24-4.39-21.4-3.18c0,0-5.05,4.94-4.28,11.85l8.45,8.67,14.93-4.06,7.02,16.24s-14.82,7.35-25.46,4.94-20.3-9.99-24.26-17.89-.44-19.43,1.1-23.16,11.96-15.7,20.2-17.12,25.35,6.91,25.35,6.91Z"/>
      </g>
      <g>
        <path class="cls-3" d="M41.24,4c-30.44,0-37.24-1.17-37.24,34.39,0,35.56,1.46,38.34,37.24,38.34,35.78,0,37.24-2.78,37.24-38.34S71.68,4,41.24,4Z"/>
        <path class="cls-1" d="M37.24,0C6.8,0,0-1.17,0,34.39c0,35.56,1.46,38.34,37.24,38.34,35.78,0,37.24-2.78,37.24-38.34S67.68,0,37.24,0Z"/>
        <polyline class="cls-2" points="25.66 19.21 25.66 52.14 47.62 52.14 47.62 46.71 31.98 46.71 31.98 38.14 45.97 38.14 45.97 33.21 32.2 33.21 32.2 24.75 47.18 24.75 47.18 19.21 25.94 19.21"/>
      </g>
    </g>
  </g>
</svg>