<?xml version="1.0" encoding="UTF-8"?>
<svg id="Layer_2" data-name="Layer 2" xmlns="http://www.w3.org/2000/svg" viewBox="0 0 167.63 78.88">
  <defs>
    <style>
      .cls-1 {
        fill: #f11672;
      }

      .cls-2 {
        fill: #fff;
      }

      .cls-3 {
        isolation: isolate;
        opacity: .5;
      }
    </style>
  </defs>
  <g id="Layer_2-2" data-name="Layer 2">
    <g>
      <path class="cls-3" d="M101.78,6.11c-11.5-.08-21.09-.2-29.07,0-3.29,0-6.76,0-10.49,0C14.63,6.11,4,4.94,4,40.5s2.28,38.34,58.21,38.34c8.01,0,14.92-.06,20.88-.26,5.4.14,11.41.21,18.1.26,63.53.46,66.14-2.3,66.43-37.86.29-35.56-11.8-34.48-65.84-34.87Z"/>
      <path class="cls-1" d="M97.78.11c-11.5-.08-21.09-.2-29.07,0-3.29,0-6.76,0-10.49,0C10.63.11,0-1.06,0,34.5s2.28,38.34,58.21,38.34c8.01,0,14.92-.06,20.88-.26,5.4.14,11.41.21,18.1.26,63.53.46,66.14-2.3,66.43-37.86C163.91-.58,151.82.5,97.78.11Z"/>
      <path class="cls-2" d="M56.44,19.17l-13.32.07-10.43,12.26-.99-12.61-11.97.91,2.54,34.17,12.61-.21-.49-7.76,2.25-2.47,7.54,10.36,12.33-3.09-11.91-17.33,11.84-14.31ZM137.97,33.48l11.84-14.31-13.32.07-10.43,12.26-.99-12.61-11.98.91,2.54,34.17,12.62-.21-.49-7.76,2.25-2.47,7.54,10.36,12.33-3.09-11.91-17.33ZM59.75,19.89s0,27.2,1.13,33.75l13.1.28s-.99-22.9-2.68-35.45l-11.56,1.41ZM96.32,44.26l-5.43-5.57c-.49-4.44,2.75-7.61,2.75-7.61,3.31-.78,13.74,2.04,13.74,2.04l1.06-10.78h0s-10.98-5.35-16.28-4.44-11.98,8.6-12.97,10.99-3.25,9.8-.71,14.87c2.54,5.07,8.74,9.94,15.58,11.49,6.83,1.55,16.35-3.17,16.35-3.17l-4.51-10.43-9.59,2.61Z"/>
    </g>
  </g>
</svg>