<?xml version="1.0" encoding="UTF-8"?>
<svg id="Layer_2" data-name="Layer 2" xmlns="http://www.w3.org/2000/svg" viewBox="0 0 218.94 76.73">
  <defs>
    <style>
      .cls-1 {
        fill: #f11672;
      }

      .cls-2 {
        fill: #fff;
      }

      .cls-3 {
        isolation: isolate;
        opacity: .5;
      }
    </style>
  </defs>
  <g id="Layer_2-2" data-name="Layer 2">
    <g id="kickqr">
      <path class="cls-1" d="M125.5,21.55l-13.32.07-10.43,12.26-.99-12.61-11.97.91,2.54,34.17,12.61-.21-.49-7.76,2.25-2.47,7.54,10.36,12.33-3.09-11.91-17.33,11.84-14.31ZM207.03,35.86l11.84-14.31-13.32.07-10.43,12.26-.99-12.61-11.98.91,2.54,34.17,12.62-.21-.49-7.76,2.25-2.47,7.54,10.36,12.33-3.09-11.91-17.33ZM128.81,22.26s0,27.2,1.13,33.75l13.1.28s-.99-22.9-2.68-35.45l-11.56,1.41ZM165.38,46.63l-5.43-5.57c-.49-4.44,2.75-7.61,2.75-7.61,3.31-.78,13.74,2.04,13.74,2.04l1.06-10.78h0s-10.98-5.35-16.28-4.44-11.98,8.6-12.97,10.99-3.25,9.8-.71,14.87c2.54,5.07,8.74,9.94,15.58,11.49,6.83,1.55,16.35-3.17,16.35-3.17l-4.51-10.43-9.59,2.61Z"/>
      <path class="cls-3" d="M41.24,4C10.8,4,4,2.83,4,38.39s1.46,38.34,37.24,38.34,37.24-2.78,37.24-38.34S71.68,4,41.24,4Z"/>
      <path class="cls-1" d="M37.24,0C6.8,0,0-1.17,0,34.39s1.46,38.34,37.24,38.34,37.24-2.78,37.24-38.34S67.68,0,37.24,0Z"/>
      <path class="cls-2" d="M34.86,27.66v1.75s-1.75,0-1.75,0v3.58s1.75,0,1.75,0v-1.75s1.75,0,1.75,0v-1.83s1.75,0,1.75,0v-1.75h-1.75s0-1.75,0-1.75h-3.5s0,1.75,0,1.75h1.75ZM45.52,25.91h-1.83v1.75h1.83s0-1.75,0-1.75ZM20.61,27.66h-1.75s0,1.75,0,1.75h1.75v-1.75ZM24.2,27.66h-1.75s0,1.75,0,1.75h1.75v-1.75ZM18.86,31.24v-1.83h-1.75v1.83h1.75ZM24.2,32.99v1.75s3.58,0,3.58,0v1.75s-3.58,0-3.58,0v1.83h1.75s0,3.5,0,3.5h-3.5s0,1.83,0,1.83h5.33s0-5.33,0-5.33h1.75s0,3.5,0,3.5h1.75s0-1.75,0-1.75h1.83s0-3.58,0-3.58h1.75s0-1.75,0-1.75h-3.58s0,1.75,0,1.75h-1.75s0-3.5,0-3.5h1.75s0-1.75,0-1.75h-5.33s0-1.83,0-1.83h-1.75v1.83s-1.75,0-1.75,0v-1.83s-1.83,0-1.83,0v3.58h3.58ZM11.78,31.24v5.25h1.75s0-5.25,0-5.25h-1.75ZM15.28,31.24v1.75s1.83,0,1.83,0v-1.75h-1.83ZM40.19,32.99v-1.75h-3.58v1.75s3.58,0,3.58,0ZM17.11,32.99v1.75s3.5,0,3.5,0v-1.75h-3.5ZM41.94,32.99h-1.75v1.75h1.75v-1.75ZM59.68,36.5v1.83s3.58,0,3.58,0v-3.58s-1.75,0-1.75,0v-1.75s-1.83,0-1.83,0v1.75s-1.75,0-1.75,0v-1.75s-1.75,0-1.75,0v3.5h3.5ZM24.2,40.08v-1.75s-1.75,0-1.75,0v-1.83s1.75,0,1.75,0v-1.75h-3.58v1.75s-1.75,0-1.75,0v1.83s1.75,0,1.75,0v1.75s-1.75,0-1.75,0v1.75h3.58v-1.75s1.75,0,1.75,0ZM40.19,34.74h-1.83s0,1.75,0,1.75h1.83v-1.75ZM61.51,40.08h-1.83s0,1.75,0,1.75h1.83s0-1.75,0-1.75ZM47.27,34.74h-1.75s0,1.75,0,1.75h-1.83s0-1.75,0-1.75h-1.75s0,1.75,0,1.75h-1.75s0,1.83,0,1.83h1.75s0,1.75,0,1.75h1.75s0-1.75,0-1.75h3.58s0,1.75,0,1.75h-1.75s0,1.75,0,1.75h7.08s0-1.75,0-1.75h1.75s0,1.75,0,1.75h1.83s0,1.83,0,1.83h3.5v-1.83s-1.75,0-1.75,0v-1.75s-1.75,0-1.75,0v-3.58s-8.91,0-8.91,0v-1.75ZM49.02,38.33h1.83v1.75h-1.83v-1.75ZM59.68,41.83h0s0,0,0,0h0ZM13.53,36.5v1.83s-1.75,0-1.75,0v8.83s1.75,0,1.75,0v-8.83s1.75,0,1.75,0v-1.83s-1.75,0-1.75,0ZM36.61,36.5v1.83s1.75,0,1.75,0v-1.83h-1.75ZM17.11,41.83v-1.75s1.75,0,1.75,0v-1.75h-3.58v7.08s3.58,0,3.58,0v-3.58h-1.75ZM40.19,38.33h-1.83v1.75h1.83s0-1.75,0-1.75ZM56.18,45.41v-1.75s-10.66,0-10.66,0v-1.83s-7.16,0-7.16,0v-1.75h-5.25v1.75s1.75,0,1.75,0v1.83s-1.75,0-1.75,0v3.5s1.75,0,1.75,0v-1.75s1.75,0,1.75,0v-1.75s3.58,0,3.58,0v1.75s-3.58,0-3.58,0v1.75s1.75,0,1.75,0v3.58s1.83,0,1.83,0v-1.75s1.75,0,1.75,0v-1.83s1.75,0,1.75,0v-1.75h3.58v3.58h-1.75s0,1.75,0,1.75h-1.83s0,3.58,0,3.58h3.58s0,1.75,0,1.75h1.75s0-1.75,0-1.75h3.58s0,3.5,0,3.5h1.75s0-3.5,0-3.5h1.83s0-3.58,0-3.58h1.75s0,3.58,0,3.58h5.33s0-3.58,0-3.58h-3.58s0-1.75,0-1.75h-3.5s0-1.83,0-1.83h3.5s0,1.83,0,1.83h1.83s0-3.58,0-3.58h1.75s0-1.75,0-1.75h-3.58s0,1.75,0,1.75h-3.5ZM54.35,52.49h-5.33v-5.33h5.33v5.33ZM33.11,9.92v1.75s1.75,0,1.75,0v-1.75s-1.75,0-1.75,0ZM34.86,11.67h0s0,0,0,0h0s0,0,0,0ZM43.69,25.91v-1.83s5.33,0,5.33,0v-3.5s-1.75,0-1.75,0v-1.83s-1.75,0-1.75,0v-3.5s3.5,0,3.5,0v-5.33s-1.75,0-1.75,0v3.5s-3.58,0-3.58,0v1.83s-1.75,0-1.75,0v-1.83s1.75,0,1.75,0v-1.75s-1.75,0-1.75,0v-1.75h-3.58v3.5s1.83,0,1.83,0v1.83s-3.58,0-3.58,0v-3.58s-1.75,0-1.75,0v1.75s-1.75,0-1.75,0v3.58s3.5,0,3.5,0v1.75s1.75,0,1.75,0v-1.75s1.83,0,1.83,0v1.75s1.75,0,1.75,0v1.83s-1.75,0-1.75,0v3.5s-1.83,0-1.83,0v1.83s1.83,0,1.83,0v1.75s1.75,0,1.75,0v-1.75s1.75,0,1.75,0ZM45.52,20.58h1.75s0,1.75,0,1.75h-1.75s0-1.75,0-1.75ZM43.69,17v1.75s-1.75,0-1.75,0v-1.75s1.75,0,1.75,0ZM41.94,20.58h1.75s0,1.75,0,1.75h-1.75s0-1.75,0-1.75ZM29.53,45.41v-1.75s-1.75,0-1.75,0v1.75h1.75ZM29.53,20.58v-3.58s1.75,0,1.75,0v-1.75s-5.33,0-5.33,0v1.75s1.83,0,1.83,0v1.75s-1.83,0-1.83,0v3.58s1.83,0,1.83,0v-1.75s1.75,0,1.75,0ZM18.86,45.41v1.75s7.08,0,7.08,0v-1.75s-7.08,0-7.08,0ZM34.86,50.74v-1.75s-3.58,0-3.58,0v-3.58s-1.75,0-1.75,0v1.75s-3.58,0-3.58,0v3.58s1.83,0,1.83,0v1.75s-1.83,0-1.83,0v8.91s1.83,0,1.83,0v-5.33s1.75,0,1.75,0v3.58s1.75,0,1.75,0v-3.58s-1.75,0-1.75,0v-3.58s1.75,0,1.75,0v1.83s1.83,0,1.83,0v-3.58s1.75,0,1.75,0ZM29.53,50.74h-1.75s0-1.75,0-1.75h1.75s0,1.75,0,1.75ZM33.11,22.33h1.75v-3.58h-3.58v1.83h1.83s0,1.75,0,1.75ZM25.95,29.41h1.83s0-3.5,0-3.5h1.75s0-1.83,0-1.83h1.75v1.83h1.83v-3.58h-1.83v-1.75h-1.75v1.75s-1.75,0-1.75,0v1.75s-5.33,0-5.33,0v1.83s1.75,0,1.75,0v1.75s1.75,0,1.75,0v1.75ZM41.94,48.99v1.75h1.75v-1.75s-1.75,0-1.75,0ZM36.61,50.74v1.75s1.75,0,1.75,0v-1.75h-1.75ZM15.28,29.41h1.83s0-1.75,0-1.75h-3.58s0-1.75,0-1.75h7.08s0-1.83,0-1.83h-8.83s0,5.33,0,5.33h1.75s0,1.83,0,1.83h1.75v-1.83ZM40.19,52.49h-1.83s0,1.83,0,1.83h1.83s0,1.75,0,1.75h1.75v-5.33h-1.75v1.75ZM40.19,57.82v-1.75h-1.83s0-1.75,0-1.75h-5.25v1.75h1.75s0,1.75,0,1.75h-1.75s0,3.58,0,3.58h1.75s0-1.75,0-1.75h1.75s0-1.83,0-1.83h3.58ZM50.85,25.91v-1.83s-1.83,0-1.83,0v1.83h1.83ZM52.6,24.08v1.83s1.75,0,1.75,0v-1.83s-1.75,0-1.75,0ZM43.69,32.99h1.83s0-1.75,0-1.75h1.75s0,1.75,0,1.75h5.33v-1.75s1.75,0,1.75,0v1.75s1.83,0,1.83,0v-1.75s1.75,0,1.75,0v-1.83s1.75,0,1.75,0v-1.75s1.83,0,1.83,0v-3.58s-1.83,0-1.83,0v3.58s-1.75,0-1.75,0v-3.58s-1.75,0-1.75,0v1.83s-1.83,0-1.83,0v1.75s1.83,0,1.83,0v1.75s-7.16,0-7.16,0v-3.5s-1.75,0-1.75,0v3.5s-3.58,0-3.58,0v-1.75h-1.75v1.75s-1.75,0-1.75,0v1.83s3.5,0,3.5,0v1.75ZM54.35,25.91h0s0,0,0,0h0s0,0,0,0ZM49.02,57.82h-1.75s0,1.83,0,1.83h-1.75s0-1.83,0-1.83h-1.83s0-1.75,0-1.75h-1.75s0,1.75,0,1.75h-1.75s0,1.83,0,1.83h1.75s0,1.75,0,1.75h1.75s0-1.75,0-1.75h1.83s0,1.75,0,1.75h7.08s0-1.75,0-1.75h-3.58s0-1.83,0-1.83ZM31.28,29.41v-3.5h-1.75v3.5h1.75ZM36.61,61.4h3.58v-1.75h-3.58v1.75ZM11.78,61.38h12.41v-12.41h-12.41v12.41ZM13.55,50.74h8.88v8.87h-8.88v-8.87ZM63.25,9.91h-12.4v12.4h12.4v-12.4ZM61.49,20.55h-8.87v-8.88h8.87v8.88ZM24.19,9.91h-12.41v12.4h12.41v-12.4ZM22.43,20.55h-8.88v-8.88h8.88v8.88ZM61.51,57.82v1.83s1.75,0,1.75,0v-1.83s-1.75,0-1.75,0ZM57.93,56.07v1.75s-1.75,0-1.75,0v1.83s-1.83,0-1.83,0v1.75s5.33,0,5.33,0v-3.58s1.83,0,1.83,0v-1.75h-3.58ZM61.51,57.82h0s0,0,0,0h0s0,0,0,0ZM31.28,9.92h-1.75v3.5h1.75v-3.5ZM61.51,31.24h1.75v-1.83h-1.75v1.83ZM27.78,11.67h-1.83v1.75h1.83v-1.75ZM38.36,20.58h-1.75v1.75h1.75v-1.75ZM52.6,48.99h-1.75v1.75h1.75v-1.75ZM15.31,57.84h5.33v-5.33h-5.33v5.33ZM59.7,13.45h-5.33v5.33h5.33v-5.33ZM20.64,13.45h-5.33v5.33h5.33v-5.33Z"/>
    </g>
  </g>
</svg>