<svg width="217" height="69" viewBox="0 0 217 69" fill="none" xmlns="http://www.w3.org/2000/svg">
<path d="M17.5303 21.0726C18.2301 20.623 19.1496 20.8231 19.5996 21.5228L26.7197 32.6429C27.1996 32.5129 27.6998 32.433 28.2197 32.433C31.2896 32.433 33.78 34.9227 33.7803 37.9925C33.7803 41.0625 31.2897 43.5531 28.2197 43.5531C25.1499 43.5529 22.6602 41.0624 22.6602 37.9925C22.6603 36.5227 23.2302 35.1924 24.1602 34.2025L17.0801 23.1429C16.6301 22.4429 16.8303 21.5226 17.5303 21.0726Z" fill="#F31771"/>
<path fill-rule="evenodd" clip-rule="evenodd" d="M28.2803 9.91343C33.1802 9.91347 37.8004 11.1627 41.8203 13.3626C42.1303 13.5126 42.4305 13.6734 42.7305 13.8333C43.0402 13.9832 43.3399 14.1432 43.6396 14.3031C43.9496 14.453 44.2499 14.6128 44.5498 14.7728C44.8597 14.9228 45.16 15.0826 45.46 15.2425L45.4697 15.2533C54.7397 19.8933 61.1201 29.4829 61.1201 40.5628C61.1201 44.9349 60.1276 49.0761 58.3555 52.7728H216.3V58.8128H54.4414C49.2514 64.9521 41.4955 68.8529 32.8301 68.8529C27.9301 68.8529 23.31 67.6027 19.29 65.4027C18.9801 65.2527 18.6799 65.0929 18.3799 64.933C18.0699 64.783 17.7697 64.6232 17.4697 64.4632C17.1598 64.3132 16.8595 64.1525 16.5596 63.9925C16.2498 63.8426 15.9501 63.6827 15.6504 63.5228C6.38047 58.8828 0.000109827 49.2931 0 38.2132C0 22.5932 12.6703 9.92343 28.2803 9.91343ZM56.3896 33.3031C57.3796 48.093 52.6195 57.4334 39.5596 64.6234C53.6696 60.5834 61.0296 47.3431 56.3896 33.3031ZM28.29 15.973C16 15.973 6.0498 25.9332 6.0498 38.2132C6.04996 50.4931 16.0101 60.4525 28.29 60.4525C40.5699 60.4525 50.5301 50.4931 50.5303 38.2132C50.5303 25.9332 40.58 15.973 28.29 15.973Z" fill="#F31771"/>
<path d="M36.0596 1.12339C37.2995 -1.36657 40.9898 0.963106 43.2998 1.63315C53.6095 4.63305 49.9605 9.23287 47.9805 11.433C46.0005 13.6229 44.6101 11.3527 38.6104 9.23276L38.6201 9.24253C32.6206 7.12268 34.8195 3.61335 36.0596 1.12339Z" fill="#F31771"/>
</svg>
